<?xml version="1.0" standalone="no"?>
<!DOCTYPE svg PUBLIC "-//W3C//DTD SVG 20010904//EN"
 "http://www.w3.org/TR/2001/REC-SVG-20010904/DTD/svg10.dtd">
<svg version="1.0" xmlns="http://www.w3.org/2000/svg"
 width="200.000000pt" height="200.000000pt" viewBox="0 0 200.000000 200.000000"
 preserveAspectRatio="xMidYMid meet">

<g transform="translate(0.000000,200.000000) scale(0.100000,-0.100000)"
fill="#000000" stroke="none">
<path d="M0 1000 l0 -1000 1000 0 1000 0 0 1000 0 1000 -1000 0 -1000 0 0
-1000z m1047 430 c14 -33 31 -60 37 -60 6 0 36 12 66 26 30 14 48 19 40 11
-27 -25 -412 -308 -415 -305 -2 2 -5 23 -6 47 l-4 45 121 65 c120 65 121 66
112 93 -12 34 -24 36 -32 5 -3 -14 -22 -31 -52 -45 -25 -13 -48 -22 -49 -20
-2 2 15 47 37 101 l41 97 39 0 c38 0 39 -1 65 -60z m93 -217 c18 -43 35 -85
38 -93 6 -19 -60 43 -101 94 l-31 39 23 18 c13 11 27 19 31 19 4 0 22 -35 40
-77z m380 -228 c0 -20 -5 -25 -25 -25 -20 0 -25 5 -25 25 0 20 5 25 25 25 20
0 25 -5 25 -25z m-883 -35 l-6 -50 29 15 c35 18 72 19 88 3 7 -7 12 -44 12
-95 0 -82 0 -83 -25 -83 -24 0 -25 2 -25 69 0 39 -4 72 -10 76 -5 3 -20 3 -34
-1 -23 -5 -25 -11 -28 -72 -3 -65 -4 -67 -30 -70 l-28 -3 0 130 0 131 31 0 32
0 -6 -50z m-333 -37 c2 -10 10 -45 17 -78 l13 -60 15 69 c16 70 35 94 65 83
19 -8 21 -12 37 -92 l12 -60 12 50 c7 28 16 62 19 78 5 20 12 27 31 27 14 0
25 -2 25 -5 0 -17 -44 -162 -52 -172 -15 -19 -56 -16 -67 5 -5 10 -13 42 -17
70 -9 69 -20 73 -28 11 -10 -75 -22 -99 -48 -99 -13 0 -28 4 -34 8 -8 6 -54
154 -54 176 0 15 49 5 54 -11z m656 -3 c26 -26 26 -66 1 -80 -11 -5 -38 -10
-60 -10 -28 0 -41 -4 -41 -14 0 -18 22 -26 71 -26 27 0 39 -4 39 -14 0 -18
-22 -26 -76 -26 -63 0 -94 32 -94 95 0 64 31 95 95 95 32 0 51 -6 65 -20z
m100 5 c0 -19 9 -19 34 0 29 22 56 19 56 -5 0 -21 -4 -24 -52 -34 -27 -6 -28
-9 -28 -71 0 -63 -1 -65 -25 -65 -25 0 -25 0 -25 95 0 88 1 95 20 95 11 0 20
-7 20 -15z m270 -5 c44 -44 14 -90 -56 -90 -38 0 -45 -3 -42 -17 2 -14 15 -19
56 -21 35 -2 52 -7 52 -16 0 -18 -23 -26 -76 -26 -64 0 -94 32 -94 99 0 42 4
53 26 70 36 28 106 29 134 1z m190 -75 c0 -95 0 -95 -25 -95 -25 0 -25 0 -25
95 0 95 0 95 25 95 25 0 25 0 25 -95z m200 76 c0 -17 -8 -20 -50 -23 -62 -4
-66 -19 -10 -35 53 -16 70 -30 70 -59 0 -40 -25 -54 -96 -54 -57 0 -64 2 -64
20 0 18 7 20 56 20 70 0 69 18 -2 41 -60 19 -80 55 -49 89 15 16 30 20 82 20
56 0 63 -2 63 -19z"/>
<path d="M860 870 c0 -18 5 -21 33 -18 20 2 32 8 32 18 0 10 -12 16 -32 18
-28 3 -33 0 -33 -18z"/>
<path d="M1226 875 c-9 -26 -8 -26 32 -23 25 2 37 8 37 18 0 22 -61 26 -69 5z"/>
</g>
</svg>
